<svg version="1.1" id="Icebreaker" xmlns="http://www.w3.org/2000/svg" xmlns:xlink="http://www.w3.org/1999/xlink" x="0px" y="0px"
	 viewBox="0 0 256 256" style="enable-background:new 0 0 256 256;" xml:space="preserve">
<path d="M45.59,4.5c55.53,0,110.73,0,166.19,0c0,82.38,0,164.54,0,247.1c-55.21,0-110.52,0-166.19,0
	C45.59,169.47,45.59,87.19,45.59,4.5z M50.23,10.39c0,1.76,0,3.49,0,5.23c0,75.07,0.04,150.14-0.09,225.21
	c-0.01,4.63,1.02,6.31,6.03,6.29c47.94-0.19,95.88-0.18,143.81-0.01c4.8,0.02,6.18-1.31,6.17-6.15
	c-0.14-75.07-0.1-150.14-0.1-225.21c0-1.75,0-3.5,0-5.36C153.9,10.39,102.48,10.39,50.23,10.39z"/>
<path d="M147.77,201.84c-13.24,0-26.16,0-39.34,0c0-48.08,0-95.94,0-144.21c12.91,0,25.94,0,39.34,0
	C147.77,105.46,147.77,153.44,147.77,201.84z"/>
</svg>
